<?xml version="1.0" encoding="utf-8"?>
<!-- Generator: Adobe Illustrator 23.0.1, SVG Export Plug-In . SVG Version: 6.00 Build 0)  -->
<svg version="1.1" id="Layer_1" xmlns="http://www.w3.org/2000/svg" xmlns:xlink="http://www.w3.org/1999/xlink" x="0px" y="0px"
	 viewBox="0 0 345.8 234.6" style="enable-background:new 0 0 345.8 234.6;" xml:space="preserve">
<style type="text/css">
	.st0{fill:#FFFFFF;}
</style>
<path class="st0" d="M687.94,402.65l12.3,19.6v84.93h-66.48v-229.8h35.35l88.77,142.57l-7.3,11.91L662.2,289.67h-16.14v204.82h41.89
	V402.65z M750.58,465.29l42.65-68.4v23.44l-42.65,68.4l-33.82-54.18l-5.76-9.22l-1.54-2.69l-21.52-34.58l-8.07-13.07l-6.53-10.76
	v115.67h-12.68V321.18l29.59,47.27l29.97,47.65l7.3,11.91L750.58,465.29z M764.8,385.74l48.8-78.01v199.44h-12.68v-156.4
	l-36.12,58.41l-13.45-21.52l-15.37-24.98l-19.21-30.36l-33.82-54.95h14.6l29.98,48.03l30.36,49.19l4.23,6.53L764.8,385.74z
	 M867.4,277.38v229.8h-39.2V304.66h12.3v189.83h14.6V289.67l-44.58,0.38l-48.04,77.24l-7.3-11.53l48.42-78.01L867.4,277.38z"/>
<path class="st0" d="M899.38,343.67h24.23v6.2h-18.22v39.82H872.9V277.38h19.34v98.98h-6.2v-92.97h-7.14v100.11h20.47V343.67z
	 M940.7,290.71h6.01v98.98h-19.35v-53.15h-27.98v-59.16h6.01v53.15h27.99v52.96h7.32V290.71z M927.37,277.38h32.49v112.31h-6.01
	v-106.3h-20.47v40.01h-24.23v-6.2h18.22V277.38z"/>
<path class="st0" d="M938.92,399.27c6.82,2.94,12.77,6.95,17.84,12.02c5.07,5.07,9.08,11.02,12.02,17.84
	c2.94,6.82,4.41,14.12,4.41,21.88c0,7.76-1.47,15.06-4.41,21.88c-2.94,6.82-6.95,12.77-12.02,17.84
	c-5.07,5.07-11.02,9.08-17.84,12.02c-6.82,2.94-14.06,4.41-21.69,4.41h-43.2V408.2h43.2c5.88,0,11.43,1.13,16.62,3.38
	c5.2,2.25,9.74,5.32,13.62,9.2c3.88,3.88,6.95,8.42,9.2,13.62c2.25,5.2,3.38,10.74,3.38,16.62c0,5.89-1.13,11.43-3.38,16.62
	c-2.25,5.2-5.32,9.73-9.2,13.62c-3.88,3.88-8.42,6.95-13.62,9.2c-5.2,2.25-10.74,3.38-16.62,3.38h-16.72v-62.73h6.01v56.72h10.71
	c5.01,0,9.77-0.97,14.27-2.91c4.51-1.94,8.42-4.57,11.74-7.89c3.32-3.32,5.95-7.2,7.89-11.64c1.94-4.44,2.91-9.23,2.91-14.37
	c0-5.01-0.97-9.77-2.91-14.27c-1.94-4.51-4.57-8.42-7.89-11.74c-3.32-3.32-7.23-5.95-11.74-7.89c-4.51-1.94-9.27-2.91-14.27-2.91
	h-37.19v86.77h37.19c6.89,0,13.37-1.32,19.44-3.94c6.07-2.63,11.36-6.2,15.87-10.71c4.51-4.51,8.08-9.8,10.71-15.87
	c2.63-6.07,3.94-12.55,3.94-19.44c0-6.89-1.31-13.37-3.94-19.44c-2.63-6.07-6.2-11.39-10.71-15.96c-4.51-4.57-9.8-8.17-15.87-10.8
	c-6.07-2.63-12.55-3.94-19.44-3.94h-43.2v-6.01h43.2C924.86,394.86,932.09,396.33,938.92,399.27z M926.33,472.8
	c2.82-1.25,5.29-2.94,7.42-5.07c2.13-2.13,3.82-4.63,5.07-7.51c1.25-2.88,1.88-5.95,1.88-9.2s-0.63-6.32-1.88-9.2
	c-1.25-2.88-2.94-5.38-5.07-7.51c-2.13-2.13-4.6-3.82-7.42-5.07c-2.82-1.25-5.85-1.88-9.11-1.88h-23.85v66.49h-6.01v-72.5h29.86
	c4.13,0,7.98,0.78,11.55,2.35c3.57,1.57,6.7,3.69,9.39,6.39c2.69,2.69,4.82,5.82,6.39,9.39c1.57,3.57,2.35,7.42,2.35,11.55
	c0,4.13-0.78,7.98-2.35,11.55c-1.56,3.57-3.69,6.7-6.39,9.39s-5.82,4.82-9.39,6.39c-3.57,1.57-7.42,2.35-11.55,2.35h-6.95v-6.01
	h6.95C920.48,474.68,923.52,474.06,926.33,472.8z"/>
<g>
	<path class="st0" d="M57.36,127.67l12.3,19.6v84.93H3.18V2.4h35.35l88.77,142.57l-7.3,11.91L31.62,14.7H15.48v204.82h41.89V127.67z
		 M120,190.31l42.65-68.4v23.44L120,213.75l-33.82-54.18l-5.76-9.22l-1.54-2.69l-21.52-34.58l-8.07-13.07l-6.53-10.76v115.67H30.08
		V46.21l29.59,47.27l29.97,47.65l7.3,11.91L120,190.31z M134.22,110.77l48.8-78.01V232.2h-12.68V75.8l-36.12,58.41l-13.45-21.52
		L105.4,87.71L86.19,57.35L52.37,2.4h14.6l29.98,48.03l30.36,49.19l4.23,6.53L134.22,110.77z M236.82,2.4v229.8h-39.2V29.68h12.3
		v189.83h14.6V14.7l-44.58,0.38l-48.04,77.24l-7.3-11.53l48.42-78.01L236.82,2.4z"/>
	<path class="st0" d="M268.81,68.7h24.23v6.2h-18.22v39.82h-32.49V2.4h19.34v98.98h-6.2V8.41h-7.14v100.11h20.47V68.7z
		 M310.12,15.73h6.01v98.98h-19.35V61.56h-27.98V2.4h6.01v53.15h27.99v52.96h7.32V15.73z M296.79,2.4h32.49v112.31h-6.01V8.41H302.8
		v40.01h-24.23v-6.2h18.22V2.4z"/>
	<path class="st0" d="M308.34,124.3c6.82,2.94,12.77,6.95,17.84,12.02c5.07,5.07,9.08,11.02,12.02,17.84
		c2.94,6.82,4.41,14.12,4.41,21.88c0,7.76-1.47,15.06-4.41,21.88c-2.94,6.82-6.95,12.77-12.02,17.84
		c-5.07,5.07-11.02,9.08-17.84,12.02c-6.82,2.94-14.06,4.41-21.69,4.41h-43.2v-98.98h43.2c5.88,0,11.43,1.13,16.62,3.38
		c5.2,2.25,9.74,5.32,13.62,9.2c3.88,3.88,6.95,8.42,9.2,13.62c2.25,5.2,3.38,10.74,3.38,16.62c0,5.89-1.13,11.43-3.38,16.62
		c-2.25,5.2-5.32,9.73-9.2,13.62c-3.88,3.88-8.42,6.95-13.62,9.2c-5.2,2.25-10.74,3.38-16.62,3.38h-16.72v-62.73h6.01v56.72h10.71
		c5.01,0,9.77-0.97,14.27-2.91c4.51-1.94,8.42-4.57,11.74-7.89c3.32-3.32,5.95-7.2,7.89-11.64c1.94-4.44,2.91-9.23,2.91-14.37
		c0-5.01-0.97-9.77-2.91-14.27c-1.94-4.51-4.57-8.42-7.89-11.74c-3.32-3.32-7.23-5.95-11.74-7.89c-4.51-1.94-9.27-2.91-14.27-2.91
		h-37.19V226h37.19c6.89,0,13.37-1.32,19.44-3.94c6.07-2.63,11.36-6.2,15.87-10.71c4.51-4.51,8.08-9.8,10.71-15.87
		c2.63-6.07,3.94-12.55,3.94-19.44c0-6.89-1.31-13.37-3.94-19.44c-2.63-6.07-6.2-11.39-10.71-15.96c-4.51-4.57-9.8-8.17-15.87-10.8
		c-6.07-2.63-12.55-3.94-19.44-3.94h-43.2v-6.01h43.2C294.29,119.88,301.52,121.36,308.34,124.3z M295.76,197.83
		c2.82-1.25,5.29-2.94,7.42-5.07c2.13-2.13,3.82-4.63,5.07-7.51c1.25-2.88,1.88-5.95,1.88-9.2c0-3.26-0.63-6.32-1.88-9.2
		c-1.25-2.88-2.94-5.38-5.07-7.51c-2.13-2.13-4.6-3.82-7.42-5.07c-2.82-1.25-5.85-1.88-9.11-1.88H262.8v66.49h-6.01v-72.5h29.86
		c4.13,0,7.98,0.78,11.55,2.35c3.57,1.57,6.7,3.69,9.39,6.39c2.69,2.69,4.82,5.82,6.39,9.39c1.57,3.57,2.35,7.42,2.35,11.55
		c0,4.13-0.78,7.98-2.35,11.55c-1.56,3.57-3.69,6.7-6.39,9.39c-2.69,2.69-5.82,4.82-9.39,6.39c-3.57,1.57-7.42,2.35-11.55,2.35
		h-6.95v-6.01h6.95C289.9,199.7,292.94,199.08,295.76,197.83z"/>
</g>
</svg>
